<?xml version="1.0" encoding="UTF-8"?>
<svg version="1.1" xmlns="http://www.w3.org/2000/svg" width="970" height="970">
<path d="M0 0 C1.40989574 -0.00258938 2.81979075 -0.00560411 4.22968477 -0.0090034 C8.07678109 -0.01701009 11.92385869 -0.01885941 15.77096236 -0.01960087 C19.93150107 -0.02146266 24.09203031 -0.02901576 28.25256348 -0.03573608 C37.34014355 -0.04927696 46.42771919 -0.05533808 55.51530766 -0.05974674 C61.20168796 -0.06251755 66.88806657 -0.06675651 72.57444572 -0.07125092 C88.35129851 -0.08344028 104.12814997 -0.09373879 119.90500736 -0.09712601 C121.41765435 -0.09745536 121.41765435 -0.09745536 122.96085986 -0.09779136 C123.97157093 -0.09800964 124.98228199 -0.09822791 126.02362067 -0.09845281 C128.0713654 -0.09889626 130.11911013 -0.09934282 132.16685486 -0.09979248 C133.6904512 -0.10012463 133.6904512 -0.10012463 135.24482726 -0.10046348 C151.6709606 -0.10440409 168.09704938 -0.12183705 184.52316553 -0.145152 C201.43088662 -0.16895453 218.33858544 -0.18133196 235.24632353 -0.18249393 C244.7217158 -0.18340594 254.19705007 -0.18903742 263.67242622 -0.20731354 C271.74784036 -0.22283551 279.82317857 -0.22776478 287.89860482 -0.21957543 C292.00717513 -0.21571059 296.11559314 -0.21638983 300.22414398 -0.23063278 C323.33519417 -0.30616275 346.13061684 0.80875185 368.85508728 5.39044189 C369.9126825 5.60023682 370.97027771 5.81003174 372.05992126 6.02618408 C428.01563347 17.51831079 481.9236143 43.21565169 524.79258728 81.14044189 C525.64981384 81.89841064 526.50704041 82.65637939 527.39024353 83.43731689 C529.87241677 85.65593133 532.33231502 87.89758904 534.79258728 90.14044189 C535.73747009 90.98091064 536.68235291 91.82137939 537.65586853 92.68731689 C545.18690362 99.41848714 552.10591623 106.5727036 558.79258728 114.14044189 C559.25519958 114.66364014 559.71781189 115.18683838 560.19444275 115.72589111 C610.50949508 173.04254107 642.98461746 250.6211416 642.93302917 327.34785461 C642.93561855 328.75775035 642.93863329 330.16764536 642.94203258 331.57753938 C642.95003927 335.42463571 642.95188859 339.27171331 642.95263004 343.11881697 C642.95449183 347.27935568 642.96204494 351.43988492 642.96876526 355.60041809 C642.98230614 364.68799816 642.98836726 373.7755738 642.99277592 382.86316228 C642.99554673 388.54954257 642.99978569 394.23592118 643.00428009 399.92230034 C643.01646946 415.69915313 643.02676797 431.47600458 643.03015518 447.25286198 C643.03037475 448.2612933 643.03059431 449.26972463 643.03082053 450.30871448 C643.03103881 451.31942554 643.03125709 452.33013661 643.03148198 453.37147528 C643.03192543 455.41922001 643.03237199 457.46696474 643.03282166 459.51470947 C643.03304309 460.53044037 643.03326451 461.54617126 643.03349265 462.59268188 C643.03743326 479.01881521 643.05486623 495.44490399 643.07818118 511.87102015 C643.1019837 528.77874123 643.11436114 545.68644005 643.1155231 562.59417814 C643.11643512 572.06957042 643.1220666 581.54490468 643.14034271 591.02028084 C643.15586469 599.09569497 643.16079396 607.17103319 643.15260461 615.24645943 C643.14873977 619.35502974 643.14941901 623.46344776 643.16366196 627.5719986 C643.23919193 650.68304878 642.12427732 673.47847145 637.54258728 696.20294189 C637.33279236 697.26053711 637.12299744 698.31813232 636.90684509 699.40777588 C625.41471838 755.36348808 599.71737749 809.27146892 561.79258728 852.14044189 C560.65563416 853.42628174 560.65563416 853.42628174 559.49571228 854.73809814 C557.27709785 857.22027138 555.03544014 859.68016963 552.79258728 862.14044189 C551.95211853 863.08532471 551.11164978 864.03020752 550.24571228 865.00372314 C543.51454203 872.53475823 536.36032558 879.45377084 528.79258728 886.14044189 C528.26938904 886.6030542 527.7461908 887.0656665 527.20713806 887.54229736 C469.8904881 937.85734969 392.31188758 970.33247208 315.58517456 970.28088379 C314.17527882 970.28347317 312.76538381 970.2864879 311.35548979 970.28988719 C307.50839347 970.29789388 303.66131587 970.2997432 299.8142122 970.30048466 C295.6536735 970.30234645 291.49314425 970.30989955 287.33261108 970.31661987 C278.24503101 970.33016075 269.15745538 970.33622187 260.0698669 970.34063053 C254.3834866 970.34340134 248.69710799 970.3476403 243.01072884 970.3521347 C227.23387605 970.36432407 211.45702459 970.37462258 195.6801672 970.3780098 C194.16752021 970.37833915 194.16752021 970.37833915 192.6243147 970.37867515 C191.61360363 970.37889343 190.60289257 970.3791117 189.5615539 970.3793366 C187.51380916 970.37978005 185.46606443 970.38022661 183.4183197 970.38067627 C182.40258881 970.3808977 181.38685792 970.38111913 180.3403473 970.38134727 C163.91421396 970.38528788 147.48812518 970.40272084 131.06200903 970.42603579 C114.15428794 970.44983832 97.24658912 970.46221575 80.33885103 970.46337771 C70.86345876 970.46428973 61.38812449 970.46992121 51.91274834 970.48819733 C43.8373342 970.5037193 35.76199599 970.50864857 27.68656974 970.50045922 C23.57799943 970.49659438 19.46958142 970.49727362 15.36103058 970.51151657 C-7.75001961 970.58704654 -30.54544228 969.47213194 -53.26991272 964.89044189 C-54.32750793 964.68064697 -55.38510315 964.47085205 -56.4747467 964.25469971 C-112.43045891 952.762573 -166.33843974 927.0652321 -209.20741272 889.14044189 C-210.06463928 888.38247314 -210.92186584 887.62450439 -211.80506897 886.84356689 C-214.28724221 884.62495246 -216.74714046 882.38329475 -219.20741272 880.14044189 C-220.62473694 878.87973877 -220.62473694 878.87973877 -222.07069397 877.59356689 C-229.60172906 870.86239665 -236.52074167 863.70818019 -243.20741272 856.14044189 C-243.90133118 855.35564453 -243.90133118 855.35564453 -244.60926819 854.55499268 C-294.92432052 797.23834272 -327.3994429 719.65974219 -327.34785461 642.93302917 C-327.35044399 641.52313344 -327.35345873 640.11323842 -327.35685802 638.7033444 C-327.36486471 634.85624808 -327.36671403 631.00917048 -327.36745548 627.16206682 C-327.36931727 623.00152811 -327.37687038 618.84099887 -327.3835907 614.6804657 C-327.39713158 605.59288563 -327.4031927 596.50530999 -327.40760136 587.41772151 C-327.41037217 581.73134122 -327.41461113 576.04496261 -327.41910553 570.35858345 C-327.4312949 554.58173066 -327.44159341 538.80487921 -327.44498062 523.02802181 C-327.44520019 522.01959049 -327.44541975 521.01115916 -327.44564597 519.97216931 C-327.44586425 518.96145825 -327.44608253 517.95074718 -327.44630742 516.90940851 C-327.44675087 514.86166378 -327.44719743 512.81391905 -327.44764709 510.76617432 C-327.44786852 509.75044342 -327.44808995 508.73471253 -327.44831809 507.68820191 C-327.4522587 491.26206857 -327.46969167 474.8359798 -327.49300662 458.40986364 C-327.51680914 441.50214256 -327.52918658 424.59444374 -327.53034854 407.68670565 C-327.53126056 398.21131337 -327.53689204 388.7359791 -327.55516815 379.26060295 C-327.57069013 371.18518882 -327.5756194 363.1098506 -327.56743005 355.03442436 C-327.56356521 350.92585405 -327.56424444 346.81743603 -327.5784874 342.70888519 C-327.65401736 319.59783501 -326.53910276 296.80241234 -321.95741272 274.07794189 C-321.7476178 273.02034668 -321.53782288 271.96275146 -321.32167053 270.87310791 C-309.82954382 214.91739571 -284.13220292 161.00941487 -246.20741272 118.14044189 C-245.07045959 116.85460205 -245.07045959 116.85460205 -243.91053772 115.54278564 C-241.69192329 113.06061241 -239.45026557 110.60071416 -237.20741272 108.14044189 C-235.94670959 106.72311768 -235.94670959 106.72311768 -234.66053772 105.27716064 C-227.92936747 97.74612556 -220.77515102 90.82711295 -213.20741272 84.14044189 C-212.68421448 83.67782959 -212.16101624 83.21521729 -211.6219635 82.73858643 C-154.30531354 32.42353409 -76.72671302 -0.05158829 0 0 Z " fill="#1E1E1E" transform="translate(327.20741271972656,-0.14044189453125)"/>
<path d="M0 0 C1.11096508 0.94591687 2.22102262 1.89289969 3.33070374 2.84032249 C4.25809656 3.63117479 4.25809656 3.63117479 5.20422459 4.4380039 C7.66226629 6.57605053 9.98794188 8.82985659 12.30859375 11.11572266 C12.78914719 11.5880986 13.26970062 12.06047455 13.76481628 12.54716492 C15.32530464 14.08319769 16.88193934 15.62304031 18.4375 17.1640625 C18.97292419 17.69416302 19.50834839 18.22426353 20.05999756 18.7704277 C22.88252819 21.56642633 25.70150959 24.36595329 28.51806641 27.16796875 C30.84682067 29.48329089 33.18266869 31.79108952 35.52490234 34.09277344 C38.36450976 36.88324796 41.19181787 39.68562736 44.01052856 42.49720383 C45.0844516 43.5644 46.16263607 44.6273254 47.24508667 45.68587112 C48.75081943 47.16017313 50.24020675 48.64926693 51.7265625 50.14306641 C52.57814941 50.98656647 53.42973633 51.83006653 54.30712891 52.6991272 C56 55 56 55 55.80536324 56.92099971 C54.84574617 59.39819767 53.68522865 60.68858735 51.80705929 62.56487751 C51.12028951 63.25823714 50.43351972 63.95159676 49.72593874 64.66596729 C48.58288179 65.79693962 48.58288179 65.79693962 47.41673279 66.95075989 C46.61297952 67.75778199 45.80922626 68.5648041 44.98111683 69.39628142 C42.2737262 72.11098119 39.55570769 74.81478594 36.83764648 77.51879883 C34.89829483 79.45727814 32.96120026 81.39800727 31.02400208 83.33863831 C26.29850001 88.06977995 21.56505143 92.79289413 16.82893991 97.51341251 C11.31136639 103.01345446 5.80185274 108.52154052 0.29271091 114.03002592 C-9.5423692 123.86341688 -19.38449856 133.68972176 -29.23071289 143.51196289 C-38.7774843 153.03550709 -48.31972694 162.5635567 -57.85668945 172.09692383 C-58.44332863 172.68334024 -59.0299678 173.26975664 -59.63438392 173.87394325 C-60.8162384 175.05535511 -61.99809259 176.23676727 -63.17994648 177.41817973 C-63.76300098 178.00101467 -64.34605548 178.5838496 -64.9467783 179.1843462 C-65.52838952 179.76574143 -66.11000073 180.34713666 -66.70923654 180.94614993 C-75.804115 190.03732063 -84.90281876 199.12466228 -94.00204428 208.21148178 C-97.29577095 211.50078221 -100.58900535 214.79057456 -103.88189626 218.08071164 C-109.11006876 223.30443826 -114.3399206 228.52647166 -119.57312084 233.74516181 C-121.96312274 236.12858654 -124.35210645 238.51300688 -126.73948288 240.89906311 C-129.33330132 243.49112594 -131.93017436 246.08008999 -134.52784729 248.66828918 C-135.2742702 249.41557858 -136.02069311 250.16286797 -136.7897349 250.9328025 C-140.05036452 254.1756674 -143.33483592 257.33124521 -146.82636929 260.32510757 C-152.22853747 264.98983013 -157.21394505 270.0790424 -162.25024414 275.12998962 C-163.37475636 276.25406515 -164.49948857 277.37792065 -165.62442017 278.50157648 C-168.69841767 281.57334828 -171.76930575 284.64821194 -174.83967519 287.72360957 C-178.15744926 291.04571569 -181.47812685 294.36491735 -184.79844666 297.68447876 C-190.54524552 303.43075414 -196.29021553 309.17885269 -202.03393555 314.92820549 C-210.33831974 323.24072836 -218.64547492 331.55047751 -226.95330167 339.8595596 C-240.43322794 353.34167267 -253.91092109 366.82601582 -267.38720703 380.31176758 C-280.47555128 393.40929557 -293.56494892 406.50576934 -306.65576172 419.60083008 C-307.46313573 420.40846682 -308.27050975 421.21610355 -309.10234964 422.04821413 C-313.15285065 426.10002021 -317.20337236 430.15180562 -321.25390434 434.20358074 C-354.83914403 467.79918145 -388.42075849 501.3984041 -422 535 C-423.11043437 534.05557661 -424.21981186 533.1099105 -425.32875156 532.16373253 C-425.94665107 531.63725038 -426.56455058 531.11076823 -427.20117432 530.56833208 C-429.70054522 528.38921956 -432.04317747 526.07630554 -434.38452148 523.72900391 C-435.11757256 522.99617187 -435.11757256 522.99617187 -435.86543274 522.24853516 C-437.45304003 520.66024061 -439.03709237 519.06845249 -440.62109375 517.4765625 C-441.73188169 516.36390615 -442.8428931 515.25147284 -443.95411682 514.13925171 C-446.85788934 511.2316873 -449.75864436 508.32113095 -452.65875244 505.40991211 C-455.62678263 502.43159571 -458.59769662 499.45615894 -461.56835938 496.48046875 C-467.38171083 490.65643877 -473.19187334 484.8292405 -479 479 C-477.6592337 476.01777541 -476.18121996 473.93239572 -473.87060547 471.62768555 C-473.23589325 470.9898967 -472.60118103 470.35210785 -471.94723511 469.69499207 C-471.2608194 469.01576187 -470.57440369 468.33653168 -469.8671875 467.63671875 C-469.1565213 466.92651077 -468.4458551 466.2163028 -467.71365356 465.48457336 C-466.20795094 463.98189043 -464.69982002 462.48163732 -463.18945312 460.98364258 C-460.89923697 458.71154523 -458.61698689 456.43168678 -456.3359375 454.15039062 C-454.86765572 452.68703005 -453.39891977 451.22412502 -451.9296875 449.76171875 C-451.25541718 449.08856125 -450.58114685 448.41540375 -449.88644409 447.72184753 C-449.23281891 447.0746022 -448.57919373 446.42735687 -447.90576172 445.76049805 C-447.34331757 445.20186569 -446.78087341 444.64323334 -446.2013855 444.06767273 C-444.36212834 442.34013256 -442.4877886 440.7075136 -440.56930733 439.07056904 C-435.03239916 434.23022366 -429.87774907 429.00967682 -424.68969727 423.80322266 C-423.55851446 422.67175944 -422.42710932 421.54051846 -421.29550266 420.40947914 C-418.20274513 417.31701578 -415.11310118 414.22145825 -412.02396822 411.12537479 C-408.68561047 407.78062137 -405.34432907 404.4387908 -402.00338745 401.09661865 C-396.21901963 395.30936875 -390.43642987 389.52034719 -384.65499878 383.73016357 C-376.28788855 375.35047991 -367.9175237 366.97405322 -359.54627383 358.59850526 C-345.95259476 344.9977639 -332.360785 331.39515621 -318.77050781 317.79101562 C-317.95770186 316.97738186 -317.14489591 316.1637481 -316.30745947 315.32545877 C-310.53825652 309.55035559 -304.76912048 303.77518557 -299 298 C-292.40987689 291.40294868 -285.81972351 284.8059276 -279.22949219 278.20898438 C-278.01177453 276.99002452 -278.01177453 276.99002452 -276.76945651 275.74643922 C-263.22887482 262.19216713 -249.68632618 248.63986196 -236.14237499 235.08895683 C-227.79308027 226.73518428 -219.44556764 218.37963852 -211.100353 210.02179003 C-205.38234161 204.2953464 -199.662558 198.57067703 -193.94138265 192.84739447 C-190.64191134 189.54657968 -187.34327336 186.24494305 -184.04684067 182.94109344 C-181.02653916 179.91402209 -178.00391645 176.88928849 -174.97947013 173.86635852 C-173.88851846 172.77513641 -172.79841079 171.68306968 -171.70925725 170.59005284 C-166.54912852 165.41247866 -161.35652209 160.33609336 -155.80357361 155.57689655 C-152.80247534 152.95298284 -150.00215793 150.13662823 -147.19152832 147.31178284 C-146.55582586 146.6769348 -145.9201234 146.04208676 -145.26515722 145.38800091 C-143.15942082 143.28389694 -141.05725207 141.17626619 -138.95507812 139.06860352 C-137.43689097 137.55013398 -135.91848297 136.03188522 -134.39987183 134.51383972 C-130.29492897 130.40918285 -126.19306875 126.30145804 -122.09176826 122.1931622 C-117.79877414 117.89390142 -113.50293315 113.59748714 -109.20739746 109.30076599 C-101.0812329 101.17149787 -92.95762005 93.03968478 -84.83492804 84.90694708 C-75.58417812 75.64500572 -66.33057621 66.38591603 -57.0767374 57.12706101 C-38.04799029 38.08787158 -19.02281528 19.04511604 0 0 Z " fill="#FEFEFE" transform="translate(696,217)"/>
<path d="M0 0 C3.65874852 1.54159719 6.00029413 3.74685497 8.796875 6.53808594 C9.25920532 6.99691162 9.72153564 7.4557373 10.19787598 7.9284668 C11.72031009 9.4421208 13.23533655 10.96294807 14.75 12.484375 C15.81058032 13.54360714 16.87145731 14.60254232 17.93261719 15.66119385 C20.15496119 17.88059123 22.37365339 20.10355991 24.58984375 22.32910156 C27.42087285 25.171497 30.26074839 28.00485617 33.10345459 30.83556747 C35.29648318 33.02134121 37.48469151 35.21189082 39.67150879 37.40387726 C40.716161 38.4498574 41.76228369 39.49437118 42.80993652 40.53734589 C44.27924745 42.00153498 45.74192426 43.47205874 47.203125 44.94433594 C48.03489258 45.7776947 48.86666016 46.61105347 49.72363281 47.46966553 C52.16651867 50.18509665 54.04873836 52.91963202 56 56 C49.36120574 62.6620581 42.71964431 69.32134193 36.07462311 75.97718906 C32.98851048 79.06849996 29.90332652 82.16072552 26.8203125 85.25512695 C23.83993119 88.24644643 20.8570486 91.23525121 17.8724823 94.22239494 C16.73943848 95.35727344 15.6072688 96.49302542 14.47602844 97.62970161 C9.11090861 103.01955283 3.73888095 108.32919759 -2.04483032 113.27513123 C-6.10250571 116.85484998 -9.88753381 120.7245617 -13.71484375 124.546875 C-14.61119034 125.43989319 -15.50753693 126.33291138 -16.43104553 127.25299072 C-18.31057665 129.12748816 -20.18896039 131.00306032 -22.06567383 132.88037109 C-24.47035158 135.28515138 -26.88189363 137.68292276 -29.29515743 140.07908249 C-31.60619804 142.37636281 -33.91008086 144.68079919 -36.21484375 146.984375 C-37.08141098 147.84375671 -37.94797821 148.70313843 -38.84080505 149.58856201 C-39.63575882 150.38659241 -40.43071259 151.1846228 -41.24975586 152.00683594 C-41.9517662 152.70742126 -42.65377655 153.40800659 -43.37705994 154.12982178 C-45.21492968 156.00654031 -45.21492968 156.00654031 -46 159 C-45.40086792 159.26846741 -44.80173584 159.53693481 -44.18444824 159.8135376 C-41.97630024 161.0128723 -40.71665442 162.12690114 -39.04882812 163.98339844 C-38.49094604 164.5941925 -37.93306396 165.20498657 -37.35827637 165.83428955 C-36.75535767 166.50256775 -36.15243896 167.17084595 -35.53125 167.859375 C-29.51361281 174.4054239 -23.31625649 180.72690272 -16.96875 186.953125 C-16.11361816 187.79548706 -15.25848633 188.63784912 -14.37744141 189.5057373 C-10.84677603 192.98302293 -7.31383159 196.45765763 -3.76318359 199.91455078 C-1.13292498 202.47871063 1.48154329 205.05809527 4.09375 207.640625 C5.31052429 208.81398407 5.31052429 208.81398407 6.55187988 210.01104736 C7.28434937 210.7399115 8.01681885 211.46877563 8.77148438 212.21972656 C9.42129272 212.85541565 10.07110107 213.49110474 10.74060059 214.14605713 C12 216 12 216 11.90174866 218.01402283 C10.83948849 220.35350449 9.6235139 221.74409309 7.80053711 223.5559082 C6.78829323 224.57265373 6.78829323 224.57265373 5.75559998 225.60993958 C4.65261314 226.6944062 4.65261314 226.6944062 3.52734375 227.80078125 C2.77087051 228.55538132 2.01439728 229.30998138 1.23500061 230.08744812 C-0.36970709 231.68543004 -1.97801013 233.27980833 -3.58959961 234.87084961 C-6.03551365 237.28585467 -8.47083072 239.71113076 -10.90429688 242.13867188 C-12.4681342 243.69332802 -14.03256894 245.24738349 -15.59765625 246.80078125 C-16.31881119 247.51768631 -17.03996613 248.23459137 -17.78297424 248.97322083 C-21.80078042 252.93563661 -25.90446268 256.74224283 -30.19139099 260.41253662 C-33.26755601 263.11256702 -36.12887364 266.02287172 -39 268.9375 C-39.58394531 269.52595703 -40.16789062 270.11441406 -40.76953125 270.72070312 C-42.18204805 272.14479793 -43.5913781 273.5720525 -45 275 C-48.46108537 273.51556158 -50.68513626 271.55369767 -53.3125 268.875 C-54.03050781 268.15054687 -54.74851562 267.42609375 -55.48828125 266.6796875 C-57.40175335 264.63825381 -59.22552518 262.5763229 -61.04174805 260.45166016 C-65.4196881 255.4396393 -70.11777133 250.77528846 -74.84375 246.09375 C-76.2619165 244.68137068 -77.68008007 243.26898839 -79.09807587 241.85643768 C-81.56323132 239.40212499 -84.03170509 236.95115467 -86.5 234.5 C-89.44985631 231.57062797 -92.39907839 228.64063715 -95.34436035 225.70666504 C-97.17068429 223.88779387 -98.99925361 222.07117348 -100.83044434 220.25720215 C-104.50209718 216.60002617 -108.11151597 212.94289533 -111.48681641 209.00878906 C-115.74195498 204.05624146 -120.40284934 199.52975159 -125.0546875 194.953125 C-126.00680228 194.01051953 -126.95846429 193.06745652 -127.90969849 192.1239624 C-131.91270255 188.15424426 -135.92015956 184.18909921 -139.9375 180.23388672 C-141.93063604 178.27109531 -143.91974693 176.30438658 -145.90457153 174.33319092 C-147.76698782 172.4839341 -149.63536386 170.64065623 -151.51022339 168.80401611 C-152.76755783 167.5518631 -152.76755783 167.5518631 -154.05029297 166.27441406 C-155.16112747 165.17809662 -155.16112747 165.17809662 -156.29440308 164.05963135 C-158.1129091 161.86365411 -158.73904063 160.81304334 -159 158 C-157.77106571 156.15303326 -157.77106571 156.15303326 -155.83326721 154.2252655 C-155.1057576 153.48943741 -154.37824799 152.75360931 -153.62869263 151.9954834 C-152.81480072 151.19799683 -152.00090881 150.40051025 -151.16235352 149.57885742 C-150.31703568 148.73120316 -149.47171783 147.88354889 -148.6007843 147.01020813 C-146.27445635 144.68253883 -143.93751623 142.36658294 -141.59508634 140.05518508 C-139.14247378 137.63011295 -136.7036308 135.1912704 -134.26316833 132.75398254 C-130.15603799 128.65606767 -126.03985532 124.56743747 -121.91723633 120.48510742 C-116.12491268 114.74934281 -110.34964673 108.99663891 -104.57746232 103.24061811 C-100.56243181 99.23810115 -96.54334297 95.23965995 -92.52347064 91.24200654 C-91.55349214 90.27737141 -90.58361603 89.31263333 -89.6138432 88.34779143 C-86.41380709 85.1644097 -83.20910758 81.98578146 -80.00219727 78.80932617 C-79.20652344 78.01791229 -78.41084961 77.22649841 -77.59106445 76.41110229 C-73.47123311 72.33833301 -69.26440017 68.43851274 -64.87837124 64.65489483 C-61.90018594 62.03103467 -59.10528962 59.23675947 -56.30859375 56.42211914 C-55.69295059 55.80662201 -55.07730743 55.19112488 -54.44300842 54.55697632 C-52.43878843 52.55206794 -50.43811908 50.54365728 -48.4375 48.53515625 C-47.03667785 47.13246609 -45.63563257 45.72999872 -44.234375 44.32774353 C-40.56945113 40.6590246 -36.90754192 36.98731122 -33.24627686 33.31494141 C-29.50065494 29.55904022 -25.75215587 25.80601289 -22.00390625 22.05273438 C-14.66647047 14.70461446 -7.33221995 7.3533242 0 0 Z " fill="#FEFEFE" transform="translate(247,327)"/>
<path d="M0 0 C2.86258875 1.21085915 4.20068846 2.93038116 6.20358658 5.30013752 C11.07118426 10.89660361 16.22888406 16.1146999 21.50452042 21.32488728 C22.51264679 22.32452037 23.52050205 23.32442695 24.5281105 24.3245821 C26.67604914 26.45596645 28.82539611 28.58591636 30.97576141 30.71485233 C34.37487439 34.0810602 37.76778917 37.45346972 41.15939713 40.82723713 C42.32500207 41.98658336 43.49060762 43.14592898 44.65621376 44.30527401 C45.53071493 45.17510099 45.53071493 45.17510099 46.4228828 46.06250024 C54.30559026 53.90230053 62.19297982 61.7373064 70.09436417 69.55828571 C75.44630354 74.85585944 80.7893944 80.16218242 86.1224016 85.47881663 C88.93981423 88.28684523 91.76166294 91.09007721 94.59447479 93.88257694 C97.24983888 96.50024453 99.89349135 99.12917492 102.52844238 101.76738453 C103.49847478 102.73443549 104.4728275 103.69717427 105.45167923 104.65529728 C106.78325611 105.95990367 108.0982158 107.28140765 109.41214371 108.60378742 C110.15355921 109.33929514 110.89497471 110.07480286 111.65885735 110.83259869 C113.10364151 112.88982868 113.10364151 112.88982868 112.92630959 115.04546261 C111.88786018 117.3735958 110.58687576 118.72968015 108.75207901 120.49920368 C108.0650087 121.17209431 107.37793839 121.84498493 106.67004776 122.53826618 C105.9468837 123.23178181 105.22371964 123.92529743 104.47864151 124.63982868 C103.06726358 126.00701982 101.65839499 127.37680627 100.25207901 128.74920368 C99.31114395 129.65364216 99.31114395 129.65364216 98.3512001 130.57635212 C96.56549588 132.41442872 94.92452741 134.26901375 93.27016068 136.22033405 C87.87256465 142.40151519 82.00002631 148.1246697 76.19177628 153.91521931 C74.8900527 155.2166604 73.5885501 156.51832253 72.28725052 157.82018757 C68.77348318 161.3342405 65.25665256 164.84521291 61.73924375 168.35562038 C58.05657852 172.0320124 54.37676605 175.71125761 50.69664383 179.39019489 C43.73610331 186.34763377 36.77301875 193.30252071 29.80900568 200.25648355 C21.87714494 208.17714687 13.94814107 216.10066744 6.0193702 224.0244236 C-10.2827066 240.31606243 -26.5883493 256.60412836 -42.89635849 272.88982868 C-46.68582037 271.12430006 -49.30665969 268.75004712 -52.21569443 265.79754353 C-52.73321777 265.28031223 -53.25074112 264.76308094 -53.78394699 264.23017597 C-55.48766138 262.52507197 -57.18418827 260.81300101 -58.88073349 259.10076618 C-60.06285256 257.91491568 -61.24541494 256.72950694 -62.42840195 255.54452229 C-65.53664577 252.4286523 -68.63883586 249.30682234 -71.73980331 246.18371296 C-74.90684351 242.99619249 -78.07957236 239.81434548 -81.25182724 236.63201618 C-87.47225252 230.39015892 -93.68629386 224.14199383 -99.89635849 217.88982868 C-95.03356932 212.03109298 -89.79557324 206.65338716 -84.40270615 201.28265095 C-83.4558053 200.33603272 -82.50912568 199.38919317 -81.56264877 198.44215107 C-79.01159981 195.89081704 -76.45749544 193.34256228 -73.90280199 190.79487824 C-71.22643718 188.12479549 -68.55293353 185.45185094 -65.87911606 182.77921772 C-60.82392184 177.72712258 -55.76618557 172.67758039 -50.70751512 167.62896627 C-44.94491907 161.87757572 -39.18518687 156.12332076 -33.42568517 150.36883175 C-21.58574429 138.53932301 -9.74223911 126.71338952 2.10364151 114.88982868 C-1.55805563 110.52646657 -5.31493233 106.34788551 -9.35094833 102.32171345 C-10.11304108 101.55940166 -10.11304108 101.55940166 -10.89052963 100.78168964 C-12.54375517 99.12915188 -14.20047657 97.48016878 -15.85729599 95.83123493 C-17.01479275 94.6756064 -18.1720666 93.51975454 -19.32912827 92.36369038 C-22.35506067 89.34155131 -25.38398546 86.32242915 -28.4135704 83.30395222 C-31.51253144 80.21527421 -34.60861562 77.12371533 -37.70495224 74.03240681 C-43.76596243 67.9820777 -49.83014096 61.93493675 -55.89635849 55.88982868 C-54.30829831 52.0489968 -51.86242968 49.58354869 -48.95934677 46.64642048 C-48.45829422 46.13704441 -47.95724167 45.62766834 -47.44100571 45.10285664 C-45.78831324 43.42612833 -44.12811367 41.75710298 -42.46667099 40.08904743 C-41.31318238 38.92659204 -40.15977161 37.76405941 -39.00643539 36.60145283 C-36.5908081 34.16935359 -34.17083717 31.74166696 -31.74840927 29.31634235 C-28.64042296 26.20295493 -25.54893781 23.07371029 -22.46113396 19.94032288 C-20.08640509 17.5359139 -17.70056345 15.14277505 -15.31145477 12.75266171 C-14.16625494 11.60324642 -13.0251909 10.44969543 -11.88833618 9.29202557 C-10.30113981 7.67808561 -8.69903227 6.08058077 -7.09215927 4.48626423 C-6.18329971 3.57233402 -5.27444016 2.65840382 -4.3380394 1.71677876 C-1.89635849 -0.11017132 -1.89635849 -0.11017132 0 0 Z " fill="#FEFEFE" transform="translate(768.8963584899902,373.1101713180542)"/>
</svg>
